<?xml version="1.0" encoding="UTF-8"?>
<svg version="1.1" xmlns="http://www.w3.org/2000/svg" width="512" height="512">
<path d="M0 0 C16.13148423 -0.65221634 31.50677383 4.98100766 43.6484375 15.5703125 C45.23093096 17.09144918 46.79446802 18.63261797 48.3359375 20.1953125 C49.03332031 20.88238281 49.73070312 21.56945312 50.44921875 22.27734375 C66.74100024 39.32835389 70.87845368 60.76473966 70.61328125 83.5859375 C70.34794682 92.74723566 68.71031788 101.36564312 66.3359375 110.1953125 C66.03840576 111.3095459 66.03840576 111.3095459 65.73486328 112.44628906 C60.97392011 129.70991593 53.81919035 146.29960557 47.0234375 162.8359375 C38.13895964 184.52071299 30.04457465 207.4144284 39.26171875 230.515625 C42.08119351 236.07255344 46.10019039 240.78614214 49.97021484 245.63183594 C73.57905888 275.32998143 83.1786374 310.16696082 87.6484375 347.3828125 C87.77040497 348.39494308 87.77040497 348.39494308 87.89483643 349.42752075 C89.64698974 364.23310319 90.53418378 379.00889794 90.57617188 393.90942383 C90.58614595 396.05260408 90.61746066 398.19492265 90.6484375 400.33789062 C90.65494697 401.71353613 90.66020543 403.08918826 90.6640625 404.46484375 C90.6734082 405.68792236 90.68275391 406.91100098 90.69238281 408.17114258 C90.3359375 411.1953125 90.3359375 411.1953125 89.24306053 412.86072791 C86.35732092 414.88013807 83.96085312 414.57148847 80.46552372 414.57283592 C79.75920875 414.57719624 79.05289377 414.58155657 78.32517532 414.58604902 C75.94031129 414.59706389 73.55601837 414.58655468 71.17115784 414.57626343 C69.45137466 414.57971754 67.7315937 414.58448045 66.0118174 414.59044516 C61.27180184 414.6030188 56.53196648 414.59675598 51.79195011 414.58748651 C46.68552647 414.58072224 41.57913467 414.59116421 36.47271729 414.59942627 C26.46336727 414.6127942 16.45408459 414.60987219 6.4447319 414.60118835 C-1.6877967 414.59442384 -9.82030638 414.59348973 -17.95283699 414.5967598 C-19.6864834 414.59744934 -19.6864834 414.59744934 -21.45515298 414.59815282 C-23.80279446 414.59911196 -26.15043593 414.6000846 -28.4980774 414.6010706 C-50.53306761 414.60963355 -72.56802044 414.59977637 -94.60300452 414.5836695 C-113.52384792 414.57026728 -132.44463611 414.57259188 -151.36547852 414.58642578 C-173.31798734 414.60246868 -195.27046335 414.60880762 -217.22297722 414.59958899 C-219.56247556 414.59863331 -221.9019739 414.5976902 -224.24147224 414.5967598 C-225.9682515 414.59606556 -225.9682515 414.59606556 -227.72991518 414.59535729 C-235.85533085 414.59276339 -243.98072577 414.59714703 -252.10613823 414.60419846 C-262.0045852 414.61259941 -271.90296077 414.61036303 -281.80139952 414.59435622 C-286.85499586 414.58645428 -291.90847302 414.58341453 -296.96206856 414.59330368 C-301.58398149 414.6022115 -306.20566423 414.59738266 -310.82755614 414.58137102 C-312.50383647 414.57800653 -314.18013606 414.57975446 -315.85640412 414.58699839 C-318.12715221 414.5960622 -320.39710186 414.58682497 -322.66780758 414.57283592 C-323.9314095 414.57234887 -325.19501142 414.57186181 -326.49690431 414.57135999 C-329.88981211 414.16850848 -331.3352884 413.6706634 -333.6640625 411.1953125 C-333.9128418 407.97583008 -333.9128418 407.97583008 -333.55078125 404.02734375 C-333.48936447 403.31858597 -333.42794769 402.60982819 -333.3646698 401.8795929 C-333.15987316 399.64745263 -332.91906121 397.42224402 -332.6640625 395.1953125 C-332.54807709 394.17531158 -332.54807709 394.17531158 -332.42974854 393.13470459 C-331.86791681 388.37040062 -331.19142832 383.62630061 -330.4765625 378.8828125 C-330.36801941 378.15463318 -330.25947632 377.42645386 -330.14764404 376.6762085 C-324.78051389 340.9519459 -316.69799712 297.12731701 -285.734375 274.0078125 C-277.00317191 268.20124223 -267.29225626 264.1953125 -256.6640625 264.1953125 C-256.39846498 256.09458826 -256.06172626 245.64437865 -261.6640625 239.1953125 C-264.31580505 238.9469057 -266.42556781 238.96490828 -269.0390625 239.1953125 C-280.56172586 239.67531478 -289.59633295 235.98726725 -298.328125 228.4140625 C-322.83674635 205.13497065 -334.01919628 169.9785854 -338.6640625 137.1953125 C-338.75977539 136.53345947 -338.85548828 135.87160645 -338.95410156 135.18969727 C-342.64927738 106.44612984 -340.09358252 75.22498165 -322.6640625 51.1953125 C-310.64512555 35.68558136 -294.04968571 26.7190169 -274.6640625 24.1953125 C-251.49743464 22.86968302 -230.66800977 26.51228342 -212.36328125 41.65234375 C-210.74526196 43.12157966 -209.19040816 44.63139525 -207.6640625 46.1953125 C-207.13039062 45.62683594 -206.59671875 45.05835938 -206.046875 44.47265625 C-191.40575941 29.29959702 -172.96371026 20.26010932 -151.77734375 19.02734375 C-132.20950144 18.89088739 -114.52036266 25.04486267 -100.1171875 38.51953125 C-81.54905492 58.77298796 -78.80799515 85.14625447 -79.49365234 111.45117188 C-80.4644877 132.78173199 -85.11027507 154.06912398 -89.02148438 175.01513672 C-89.28242889 176.43258179 -89.28242889 176.43258179 -89.54864502 177.87866211 C-89.87532451 179.65158096 -90.20756725 181.42348795 -90.54656982 183.1940918 C-93.1548928 197.43453 -90.14996496 209.81968226 -82.6640625 222.1953125 C-79.99233431 225.96274944 -77.14167438 229.56858775 -74.25927734 233.17431641 C-70.95460386 237.36104537 -67.75107384 241.62488026 -64.5390625 245.8828125 C-63.86302979 246.76904297 -63.18699707 247.65527344 -62.49047852 248.56835938 C-61.86455811 249.39787109 -61.2386377 250.22738281 -60.59375 251.08203125 C-60.02897949 251.82670654 -59.46420898 252.57138184 -58.88232422 253.33862305 C-57.6640625 255.1953125 -57.6640625 255.1953125 -57.6640625 257.1953125 C-52.11216089 254.19290255 -47.1606856 250.73083798 -42.1640625 246.8828125 C-41.44347656 246.33947266 -40.72289062 245.79613281 -39.98046875 245.23632812 C-28.30471007 236.2947661 -19.76854975 225.92751564 -16.6640625 211.1953125 C-16.59949371 209.77996472 -16.57795211 208.36193561 -16.6015625 206.9453125 C-16.6325 205.0890625 -16.6325 205.0890625 -16.6640625 203.1953125 C-17.42589844 203.03675781 -18.18773437 202.87820312 -18.97265625 202.71484375 C-34.9515856 199.10412438 -46.54591414 189.93336319 -55.49023438 176.14355469 C-63.19268543 163.35953651 -68.47336637 149.73180699 -71.6640625 135.1953125 C-71.82487305 134.52097168 -71.98568359 133.84663086 -72.15136719 133.15185547 C-79.70094938 100.90657811 -75.86199699 61.91075153 -58.6640625 33.1953125 C-56.49730156 30.0241219 -54.17582342 27.09579832 -51.6640625 24.1953125 C-51.04917969 23.38320312 -50.43429687 22.57109375 -49.80078125 21.734375 C-39.50359492 9.49823036 -22.78808075 2.57523144 -7.2265625 0.5078125 C-4.8190005 0.31214492 -2.40910414 0.17662054 0 0 Z M-206.6640625 188.1953125 C-213.41917961 207.2845497 -212.903135 228.57821511 -204.6640625 247.1953125 C-201.28777156 253.61448085 -197.95490378 257.46033974 -191.2890625 260.3203125 C-190.25120605 260.80576538 -190.25120605 260.80576538 -189.19238281 261.30102539 C-185.66012502 262.9350737 -182.08026892 264.44590072 -178.484375 265.93359375 C-169.43318876 269.69862831 -162.26060223 273.95356966 -154.6640625 280.1953125 C-153.33609575 281.20242822 -152.00487673 282.20536554 -150.6640625 283.1953125 C-142.11346427 276.700433 -136.28907349 268.99097335 -134.0859375 258.421875 C-132.86011322 249.04658932 -134.33463683 239.43170995 -136.6015625 230.3203125 C-136.85619263 229.29478271 -136.85619263 229.29478271 -137.1159668 228.24853516 C-137.91897946 225.24211078 -138.42741026 223.43196474 -140.6640625 221.1953125 C-142.0076405 221.48459963 -143.3385261 221.83221177 -144.6640625 222.1953125 C-159.63947789 223.32736334 -171.94841932 220.93021112 -184.07421875 211.421875 C-191.48466298 205.05090484 -197.59301914 198.35370042 -203.0703125 190.25 C-203.59625 189.57195312 -204.1221875 188.89390625 -204.6640625 188.1953125 C-205.3240625 188.1953125 -205.9840625 188.1953125 -206.6640625 188.1953125 Z " fill="#232323" transform="translate(380.6640625,48.8046875)"/>
<path d="M0 0 C14.78962162 12.07723927 20.53144209 30.70789848 22.44555664 49.03173828 C24.92246757 77.21069849 18.4356724 107.09392637 12.06347656 134.4309082 C7.84334434 153.84103402 11.0525516 171.04315982 21.71899414 187.64526367 C24.92287053 192.45489589 28.43892525 196.91585754 32.171875 201.328125 C51.31084229 224.60279973 63.81528706 250.03548714 70.6484375 279.33984375 C70.93332031 280.49226563 71.21820313 281.6446875 71.51171875 282.83203125 C77.56326379 308.71402389 77.77076786 334.916487 77.6484375 361.33984375 C64.7784375 361.33984375 51.9084375 361.33984375 38.6484375 361.33984375 C38.4215625 357.70984375 38.1946875 354.07984375 37.9609375 350.33984375 C37.15313303 338.81467704 35.9389631 327.35181257 34.53720093 315.88476562 C34.32105087 314.11593801 34.10797773 312.34673146 33.89810181 310.57714844 C33.59726018 308.05655613 33.28311922 305.53797516 32.96484375 303.01953125 C32.87728821 302.27661835 32.78973267 301.53370544 32.69952393 300.76828003 C31.99267063 295.37001351 30.52073075 290.44625135 28.6484375 285.33984375 C26.25124318 284.66025772 26.25124318 284.66025772 23.6484375 284.33984375 C22.9884375 284.99984375 22.3284375 285.65984375 21.6484375 286.33984375 C21.83399008 289.40314817 22.19048271 292.30915912 22.6484375 295.33984375 C22.92518311 297.18932617 22.92518311 297.18932617 23.20751953 299.07617188 C23.30948639 299.75466187 23.41145325 300.43315186 23.51651001 301.13220215 C23.97036615 304.16522057 24.41592716 307.19943747 24.86010742 310.23388672 C25.08881888 311.76977087 25.32417878 313.30468417 25.56713867 314.83837891 C28.04836248 330.59114516 27.6484375 345.04601773 27.6484375 361.33984375 C-3.0415625 361.33984375 -33.7315625 361.33984375 -65.3515625 361.33984375 C-65.3515625 340.40054605 -65.3515625 340.40054605 -64.5390625 332.46484375 C-64.44923096 331.5519458 -64.35939941 330.63904785 -64.2668457 329.69848633 C-60.99002667 297.73778797 -53.54309096 270.66640294 -30.3515625 247.33984375 C-29.49820313 246.66824219 -28.64484375 245.99664062 -27.765625 245.3046875 C-19.43321379 238.52280589 -13.97853671 227.8844785 -12.3515625 217.33984375 C-11.73759992 204.30384761 -13.34628637 192.52759346 -16.765625 179.93359375 C-17.3515625 177.33984375 -17.3515625 177.33984375 -17.3515625 173.33984375 C-15.0859375 171.375 -15.0859375 171.375 -12.1015625 169.40234375 C-8.1162764 166.75075789 -5.03854824 164.34448596 -2.3515625 160.33984375 C-2.48306076 157.58860122 -2.48306076 157.58860122 -3.3515625 155.33984375 C-5.66680424 154.5644884 -5.66680424 154.5644884 -8.3515625 154.33984375 C-10.33679693 155.49059458 -10.33679693 155.49059458 -12.0390625 157.33984375 C-20.49164741 165.26909788 -28.95844167 171.1922989 -40.8515625 171.71484375 C-54.22898276 171.12811479 -64.8612676 163.63321848 -73.86328125 154.21484375 C-80.65918339 146.3627496 -86.64667299 138.10727973 -90.3515625 128.33984375 C-89.68769531 128.19289062 -89.02382812 128.0459375 -88.33984375 127.89453125 C-82.0301304 126.29177195 -78.90909656 124.84828359 -75.3515625 119.33984375 C-73.25838681 113.06031668 -73.44826743 106.46141001 -76.1640625 100.40234375 C-81.59818586 90.70737367 -91.71521789 79.42100375 -101.8515625 74.71484375 C-104.3515625 72.33984375 -104.3515625 72.33984375 -104.7890625 69.734375 C-104.85737965 66.22885119 -104.65562071 62.83280512 -104.3515625 59.33984375 C-104.26648438 58.16679687 -104.18140625 56.99375 -104.09375 55.78515625 C-102.00944771 35.16386768 -93.78113418 15.67727147 -77.71875 2.1171875 C-71.66421977 -2.49702001 -65.46224321 -5.9591207 -58.3515625 -8.66015625 C-57.54847656 -8.97984375 -56.74539062 -9.29953125 -55.91796875 -9.62890625 C-36.9333109 -16.02623245 -15.96499357 -11.27096722 0 0 Z " fill="#A3E653" transform="translate(268.3515625,90.66015625)"/>
<path d="M0 0 C1.70294013 1.31355584 3.39256581 2.64473109 5.0625 4 C5.96935547 4.71736328 5.96935547 4.71736328 6.89453125 5.44921875 C8.3125 6.6875 8.3125 6.6875 10.0625 9 C9.66604369 13.20684198 7.94174032 16.69478218 6.1875 20.5 C3.21388341 27.17914593 1.44553015 33.81498968 0.0625 41 C-0.10596436 41.68175293 -0.27442871 42.36350586 -0.44799805 43.06591797 C-2.2702155 50.87263843 -2.29416799 58.65354183 -2.25 66.625 C-2.24751251 67.33853638 -2.24502502 68.05207275 -2.24246216 68.78723145 C-2.135777 88.5336846 1.83843114 106.77977514 10.8125 124.5 C12.07443442 127.52438291 12.14478035 128.68925594 11.29296875 131.90625 C9.99811363 135.0045136 8.53991095 137.9854445 7.0625 141 C6.43399428 142.75530881 5.84650122 144.52617104 5.3125 146.3125 C5.09078125 147.05113281 4.8690625 147.78976563 4.640625 148.55078125 C-0.39298443 169.87559959 4.10514848 192.57191945 13.515625 212 C19.1391796 220.52412487 30.22393781 223.98203104 39.2734375 227.7734375 C40.64109263 228.34784619 42.00828768 228.92335165 43.375 229.5 C44.36910889 229.91934814 44.36910889 229.91934814 45.38330078 230.34716797 C51.56687626 233.04699557 56.89621913 236.6554128 62.0625 241 C62.98095703 241.73476563 62.98095703 241.73476563 63.91796875 242.484375 C65.0625 244 65.0625 244 64.97265625 245.890625 C63.83024553 248.53827216 62.29357161 250.48960838 60.5 252.75 C52.35681219 263.7294148 47.1831016 275.70230131 44.0625 289 C43.80774902 290.05622559 43.80774902 290.05622559 43.54785156 291.13378906 C42.9989142 293.41986998 42.464628 295.70879576 41.9375 298 C41.77862305 298.68690918 41.61974609 299.37381836 41.45605469 300.08154297 C37.2971178 318.96311645 37.14134894 337.58071902 36.0625 357 C4.7125 357 -26.6375 357 -58.9375 357 C-58.9375 338.66681377 -58.9375 338.66681377 -58 330.25 C-57.81736541 328.46878513 -57.63507196 326.68753524 -57.453125 324.90625 C-57.36482422 324.06835938 -57.27652344 323.23046875 -57.18554688 322.3671875 C-56.84984472 319.16347878 -56.54025982 315.95813485 -56.25 312.75 C-56.16363281 311.83734375 -56.07726562 310.9246875 -55.98828125 309.984375 C-55.97152344 309.32953125 -55.95476562 308.6746875 -55.9375 308 C-57.06284105 306.64381501 -57.06284105 306.64381501 -60 306.9375 C-61.4540625 306.9684375 -61.4540625 306.9684375 -62.9375 307 C-65.03130138 312.42938108 -65.77262131 317.82738035 -66.5 323.5625 C-66.62930908 324.561604 -66.75861816 325.56070801 -66.8918457 326.59008789 C-68.1368626 336.72148255 -68.58578991 346.80040738 -68.9375 357 C-78.5075 357 -88.0775 357 -97.9375 357 C-97.9375 348.61041356 -97.37316973 340.99887035 -96.25 332.75 C-96.11603821 331.76323273 -96.11603821 331.76323273 -95.97937012 330.75653076 C-91.51396299 298.20782228 -83.79006205 260.03392786 -57.39453125 237.8203125 C-49.48278965 231.95883144 -41.99103494 229.33639654 -32.28100586 228.66845703 C-29.54577803 228.46193531 -27.3964729 228.28367729 -25.03515625 226.82421875 C-21.05384048 220.20758365 -22.21429215 208.48604219 -22.9375 201 C-23.77634437 197.85962044 -24.77719722 195.09761195 -26.16015625 192.1640625 C-27.0966113 189.55704692 -27.10527286 188.50606122 -25.9375 186 C-24.08203125 184.47265625 -24.08203125 184.47265625 -21.75 183.0625 C-20.94304687 182.54816406 -20.13609375 182.03382813 -19.3046875 181.50390625 C-18.52351563 181.00761719 -17.74234375 180.51132812 -16.9375 180 C-14.58914594 178.43601521 -12.93797779 177.05177209 -10.9375 175 C-10.43484308 171.78839304 -10.43484308 171.78839304 -10.9375 169 C-14.83784907 168.32167842 -16.86703733 168.24768183 -20.171875 170.5703125 C-20.96078125 171.24835938 -21.7496875 171.92640625 -22.5625 172.625 C-30.09709475 179.05055729 -38.98965991 184.24122864 -49.1875 183.57421875 C-63.23055223 180.6419337 -73.15847233 170.10571174 -80.76953125 158.6015625 C-94.9375 135.64958071 -94.9375 135.64958071 -94.9375 127 C-94.21304688 127.03480469 -93.48859375 127.06960937 -92.7421875 127.10546875 C-84.87204491 127.38727811 -84.87204491 127.38727811 -77.9375 124 C-73.85662224 118.69485891 -74.33033486 112.38366684 -74.9375 106 C-77.13087795 95.52662029 -85.10125609 86.07044852 -93.6875 80.08203125 C-97.67585169 77.50975656 -101.65609974 75.05547319 -105.9375 73 C-106.83812821 48.51625537 -102.07721508 25.47686748 -86.125 6.125 C-64.349132 -17.14529031 -25.11914723 -17.83190799 0 0 Z " fill="#A3E653" transform="translate(156.9375,95)"/>
<path d="M0 0 C14.47124323 12.31204186 22.97104751 28.17830667 25.4609375 47.09375 C26.38494697 58.71752132 25.23901367 69.8044799 22.4609375 81.09375 C22.15542969 82.34542969 21.84992188 83.59710938 21.53515625 84.88671875 C17.18151668 101.40530464 10.0976219 117.17733244 3.6640625 132.9609375 C-2.78040287 148.74393261 -2.78040287 148.74393261 -7.5390625 165.09375 C-7.79852661 166.07057739 -7.79852661 166.07057739 -8.06323242 167.06713867 C-9.60249951 173.20849326 -9.88812136 179.09044556 -9.8515625 185.40625 C-9.84592285 186.42372314 -9.8402832 187.44119629 -9.83447266 188.48950195 C-9.71758478 195.71745496 -9.19956414 202.30488375 -6.5390625 209.09375 C-5.98798828 210.50527344 -5.98798828 210.50527344 -5.42578125 211.9453125 C-2.31320044 218.90500646 1.97479879 224.42737503 6.78588867 230.24975586 C41.32581311 272.40478175 44.97027955 328.8861901 44.4609375 381.09375 C35.2209375 381.09375 25.9809375 381.09375 16.4609375 381.09375 C16.3578125 377.54625 16.2546875 373.99875 16.1484375 370.34375 C15.27652108 335.20633506 15.27652108 335.20633506 2.4609375 304.09375 C-0.63833069 304.41573966 -0.63833069 304.41573966 -3.5390625 305.09375 C-3.8016438 309.20752363 -3.60662525 312.3024533 -2.1875 316.18359375 C5.18532289 337.48745805 6.4609375 358.59559941 6.4609375 381.09375 C-15.3190625 381.09375 -37.0990625 381.09375 -59.5390625 381.09375 C-59.6215625 376.06125 -59.7040625 371.02875 -59.7890625 365.84375 C-60.8312858 323.57959077 -67.25370138 283.1416763 -86.5390625 245.09375 C-84.7890625 243.78125 -83.0390625 242.46875 -81.2890625 241.15625 C-80.74910645 240.74947021 -80.20915039 240.34269043 -79.65283203 239.92358398 C-76.92598652 237.87153193 -74.18928084 235.84127602 -71.421875 233.84375 C-56.12704122 222.72023453 -43.96499502 209.45283873 -40.92578125 190.2109375 C-40.40144563 186.5115547 -39.95488341 182.80678612 -39.5390625 179.09375 C-38.10626953 178.67416016 -38.10626953 178.67416016 -36.64453125 178.24609375 C-28.43321859 175.74116413 -19.94788547 173.0719406 -13.5390625 167.09375 C-12.50797829 164.57957532 -12.50797829 164.57957532 -12.5390625 162.09375 C-13.1990625 161.43375 -13.8590625 160.77375 -14.5390625 160.09375 C-19.92932045 160.20155516 -23.06091661 161.8995919 -27.39453125 164.75 C-36.27714677 170.31579187 -45.56872553 171.69310452 -55.89453125 169.62109375 C-57.92154505 168.94542248 -59.67118573 168.13014576 -61.5390625 167.09375 C-62.25320313 166.70316406 -62.96734375 166.31257812 -63.703125 165.91015625 C-80.41174648 155.77588927 -89.72568229 136.2739366 -94.3515625 117.859375 C-94.80965564 115.60708373 -95.22175456 113.36961385 -95.5390625 111.09375 C-94.4253125 111.75375 -93.3115625 112.41375 -92.1640625 113.09375 C-87.28680874 115.51508165 -82.90227054 115.97414261 -77.5390625 115.09375 C-73.77538477 113.31455689 -72.03279584 111.80143445 -69.6640625 108.40625 C-67.27323336 101.36658644 -68.17611095 95.43490351 -71.15234375 88.69921875 C-76.37579405 78.88501776 -84.09926202 68.78012803 -94.1015625 63.59375 C-95.9375 62.52758789 -95.9375 62.52758789 -97.5390625 61.09375 C-98.80539052 55.18548837 -97.08393077 48.74612358 -95.5390625 43.03125 C-95.32048584 42.21487061 -95.10190918 41.39849121 -94.87670898 40.55737305 C-91.65965069 29.25108468 -86.45734522 17.8939722 -78.5390625 9.09375 C-77.87261719 8.34738281 -77.20617187 7.60101563 -76.51953125 6.83203125 C-56.83331924 -14.02638953 -22.77323358 -17.89802522 0 0 Z " fill="#A3E653" transform="translate(415.5390625,70.90625)"/>
<path d="M0 0 C7.68364345 14.98054067 12.49635938 31.15582107 16.38427734 47.46533203 C16.92602153 49.69546215 17.50473961 51.90846492 18.11328125 54.12109375 C26.53474887 85.3683153 28.75709804 118.75323171 28 151 C21.07 151 14.14 151 7 151 C6.97421875 148.89109375 6.9484375 146.7821875 6.921875 144.609375 C6.20149181 99.29957379 0.73621021 55.91029423 -20 15 C-13.33333333 10 -6.66666667 5 0 0 Z " fill="#8FBF4F" transform="translate(349,301)"/>
<path d="M0 0 C6.78481651 2.96064721 11.65849356 6.90578553 17 12 C16.39398672 15.72143364 14.7580755 17.8254391 12.4375 20.75 C4.29431219 31.7294148 -0.8793984 43.70230131 -4 57 C-4.16983398 57.70415039 -4.33966797 58.40830078 -4.51464844 59.13378906 C-5.0635858 61.41986998 -5.597872 63.70879576 -6.125 66 C-6.28387695 66.68690918 -6.44275391 67.37381836 -6.60644531 68.08154297 C-9.50929931 81.2605001 -10.4657167 94.43907547 -11.125 107.875 C-11.21166233 109.54560296 -11.29889856 111.21617625 -11.38671875 112.88671875 C-11.59879424 116.92415598 -11.7991646 120.96192645 -12 125 C-18.6 125 -25.2 125 -32 125 C-33.09560446 60.88685037 -33.09560446 60.88685037 -24 36 C-23.76909668 35.35498535 -23.53819336 34.7099707 -23.30029297 34.04541016 C-18.37876525 20.66088426 -10.22794383 9.81882608 0 0 Z " fill="#8FBF4F" transform="translate(205,327)"/>
<path d="M0 0 C3.25646377 2.69821283 4.90046725 5.42810394 5.76171875 9.58203125 C6.22747979 22.09333647 0.03070343 33.35614535 -7.90234375 42.7890625 C-14.82850092 50.12597337 -22.70678225 58.03628527 -33.30078125 59.05078125 C-39.33393861 59.20932895 -43.17801304 59.10787816 -47.8125 54.8125 C-51.54434367 50.98244992 -52.14976355 47.74293834 -52.375 42.5625 C-51.87171317 28.70638444 -42.48253418 20.12193625 -32.9375 11.0625 C-24.48968241 3.62789418 -11.55364389 -4.8782052 0 0 Z " fill="#232323" transform="translate(264.8125,157.1875)"/>
<path d="M0 0 C3.81273817 3.26806129 6.22315085 6.02861915 6.86328125 11.16015625 C7.22913392 21.76988358 2.45743309 29.4911353 -4.375 37.25 C-4.9215625 37.8790625 -5.468125 38.508125 -6.03125 39.15625 C-10.50672726 43.96949912 -15.60062081 47.1721051 -21.375 50.25 C-22.14199219 50.66636719 -22.90898438 51.08273438 -23.69921875 51.51171875 C-28.92768996 54.11226726 -33.54891421 55.18126518 -39.375 54.25 C-43.53588642 52.49318129 -45.80389949 49.92300073 -48.375 46.25 C-50.5507748 39.72267559 -50.11806165 34.24060847 -47.22607422 27.95117188 C-40.38505231 14.27644075 -29.31591383 3.98202646 -14.71875 -1.16015625 C-9.19426919 -2.55048392 -5.10293629 -2.64596696 0 0 Z " fill="#242524" transform="translate(143.375,168.75)"/>
<path d="M0 0 C4.02188871 2.12477139 6.32979033 3.77892466 8 8 C9.47448534 17.4367062 6.50225954 25.61060061 1.390625 33.4765625 C-0.31488678 35.75318602 -2.10037455 37.88316166 -4 40 C-4.63035156 40.7115625 -5.26070313 41.423125 -5.91015625 42.15625 C-12.38710075 49.05812327 -19.34690638 53.54410535 -28.875 54.3125 C-33.21685083 54.25590232 -35.65096125 52.8038464 -39 50 C-42.82926619 45.64255916 -43.49331826 41.46266135 -43.38671875 35.8046875 C-41.90513429 25.05945878 -32.95598422 16.67778539 -25 10 C-21.46512269 7.37899517 -17.86715799 5.09598737 -14 3 C-13.34128906 2.64164063 -12.68257813 2.28328125 -12.00390625 1.9140625 C-7.92480704 -0.06643556 -4.48082383 -0.57028667 0 0 Z " fill="#242323" transform="translate(403,135)"/>
<path d="M0 0 C-0.47308594 0.77859375 -0.94617188 1.5571875 -1.43359375 2.359375 C-7.4582154 12.55308181 -12.36544017 23.1107482 -17 34 C-17.4228125 34.98484375 -17.845625 35.9696875 -18.28125 36.984375 C-21.94946963 46.27325374 -23.86257181 56.2683502 -26 66 C-26.18836426 66.84401367 -26.37672852 67.68802734 -26.57080078 68.55761719 C-27.75173165 74.09289605 -28.38454077 79.47420804 -28.625 85.125 C-28.66367188 85.89070313 -28.70234375 86.65640625 -28.7421875 87.4453125 C-28.83474966 89.29655565 -28.91836801 91.14824268 -29 93 C-29.44988281 92.63648438 -29.89976563 92.27296875 -30.36328125 91.8984375 C-35.90273999 87.56900081 -41.76634203 84.23141829 -48 81 C-48.90062821 56.51625537 -44.13971508 33.47686748 -28.1875 14.125 C-22.30867207 7.84272309 -9.16890959 -3.1178395 0 0 Z " fill="#8EBE4F" transform="translate(99,87)"/>
<path d="M0 0 C0.66 0.33 1.32 0.66 2 1 C1.53142578 1.56702637 1.06285156 2.13405273 0.58007812 2.71826172 C-1.05175717 5.07474081 -1.65767176 6.73334952 -2.28125 9.5078125 C-2.58252808 10.84259644 -2.58252808 10.84259644 -2.88989258 12.2043457 C-3.09122803 13.16816162 -3.29256348 14.13197754 -3.5 15.125 C-3.82037231 16.65483521 -3.82037231 16.65483521 -4.1472168 18.21557617 C-7.74932312 36.12260682 -9.26644483 53.82567627 -9.25 72.0625 C-9.24910873 73.15868149 -9.24910873 73.15868149 -9.24819946 74.27700806 C-9.22441642 81.90684372 -9.0461467 89.43230976 -8 97 C-10.46680502 94.54629306 -12.91905208 92.08462119 -15.32421875 89.5703125 C-19.53820006 85.21006077 -23.34042118 81.69333845 -28.625 78.6875 C-31.64868001 76.65433586 -32.80645102 75.77745796 -33.6953125 72.20703125 C-33.75466891 68.7262015 -33.44520789 65.45224764 -33 62 C-32.90976563 60.83082031 -32.81953125 59.66164062 -32.7265625 58.45703125 C-30.74271998 37.89119717 -22.4161892 18.33963185 -6.42578125 4.82421875 C-4.31318001 3.16929251 -2.18387663 1.55917433 0 0 Z " fill="#8EBE4F" transform="translate(197,88)"/>
<path d="M0 0 C0.66 0.33 1.32 0.66 2 1 C1.38125 1.226875 0.7625 1.45375 0.125 1.6875 C-2.66898023 3.41319367 -2.85903954 4.95535707 -4 8 C-4.82934115 9.71276978 -5.6768928 11.41679946 -6.5390625 13.11328125 C-16.00527176 32.05032722 -26.27319874 53.75262081 -27.6875 75.25 C-27.75324219 76.16265625 -27.81898438 77.0753125 -27.88671875 78.015625 C-27.92410156 78.67046875 -27.96148437 79.3253125 -28 80 C-28.4125 79.62488281 -28.825 79.24976563 -29.25 78.86328125 C-32.5194459 75.96602673 -35.53794493 73.67550847 -39.4375 71.6875 C-41.33398438 70.53027344 -41.33398438 70.53027344 -43 69 C-44.28882753 63.10585238 -42.54210178 56.64213962 -41 50.9375 C-40.78142334 50.12112061 -40.56284668 49.30474121 -40.33764648 48.46362305 C-37.12058819 37.15733468 -31.91828272 25.8002222 -24 17 C-23.33355469 16.25363281 -22.66710937 15.50726563 -21.98046875 14.73828125 C-15.75722092 8.14447226 -8.67732263 2.89729397 0 0 Z " fill="#8EBD4F" transform="translate(361,63)"/>
<path d="M0 0 C1.11178894 9.30608521 -1.6540713 16.32467153 -7.31689453 23.71972656 C-13.08838382 30.77573012 -19.78510676 38.878514 -29.26171875 40.3515625 C-31.4375 40.4375 -31.4375 40.4375 -35 40 C-37.30237735 37.69762265 -37.36549897 37.13835735 -37.5 34 C-37.25188879 24.89285921 -30.71378662 18.08912637 -24.43359375 12.10546875 C-17.46893113 6.07986177 -9.62083819 -0.68720273 0 0 Z " fill="#414141" transform="translate(260,166)"/>
<path d="M0 0 C2 2 2 2 2.4375 5 C2.11770782 13.56332403 -3.56963479 20.33748941 -9.52734375 25.95703125 C-15.15578275 30.60738449 -22.24063428 35.55726831 -29.6875 36.25 C-32 36 -32 36 -34 34 C-34.70061617 26.27862592 -31.80727162 20.77706828 -27 15 C-20.11485891 7.13532337 -11.11278809 -0.98780339 0 0 Z " fill="#414141" transform="translate(138,177)"/>
<path d="M0 0 C0.613892 10.02690263 -4.41575914 17.52258545 -10.6640625 24.98828125 C-15.1987367 29.82319644 -20.17679254 33.50132077 -26.875 34.375 C-29 34 -29 34 -31 32 C-31.75783158 27.35828155 -31.01435722 24.50314535 -28.5625 20.625 C-22.05045563 11.69940073 -11.84495946 0 0 0 Z " fill="#414141" transform="translate(401,145)"/>
<path d="M0 0 C0.33 0 0.66 0 1 0 C1.29390625 1.31097656 1.29390625 1.31097656 1.59375 2.6484375 C5.14150708 17.23705928 11.31174508 30.49575088 18.75 43.49609375 C20 46 20 46 20 49 C4.27245591 39.97011727 -8.51364591 26.10038805 -15 9 C-14.00419922 8.77957031 -14.00419922 8.77957031 -12.98828125 8.5546875 C-6.63741137 6.94147384 -3.71869608 5.39810722 0 0 Z " fill="#8EBD4F" transform="translate(193,210)"/>
<path d="M0 0 C4.29 0 8.58 0 13 0 C13.25652344 0.93457031 13.51304688 1.86914062 13.77734375 2.83203125 C18.37209601 18.86914537 25.32677885 33.36330712 34.93359375 46.99609375 C36.52358488 49.30744192 37.8547881 51.45299868 39 54 C19.16771621 45.55291616 9.28674296 25.05908025 1.5 6.125 C0 2.31034483 0 2.31034483 0 0 Z " fill="#8DBD4F" transform="translate(62,222)"/>
<path d="M0 0 C9.96205743 3.37311769 16.13069558 13.15989376 21 22 C22.17353189 25.52059568 22.20146402 28.306493 22 32 C20 34 20 34 17.375 34.5625 C12.19235547 33.69872591 9.58351501 30.6688368 6 27 C5.3915625 26.47921875 4.783125 25.9584375 4.15625 25.421875 C0.00431243 21.2307682 -0.32357394 17.33119925 -0.40429688 11.65722656 C-0.36136419 7.76323187 -0.21167941 3.88862916 0 0 Z " fill="#404040" transform="translate(316,143)"/>
<path d="M0 0 C0.66 0.33 1.32 0.66 2 1 C1.53376221 1.41733398 1.06752441 1.83466797 0.5871582 2.26464844 C-1.1123976 4.12289219 -1.6715558 5.37871463 -2.39453125 7.765625 C-2.62446777 8.48790283 -2.8544043 9.21018066 -3.09130859 9.9543457 C-3.32930176 10.71191162 -3.56729492 11.46947754 -3.8125 12.25 C-6.88446332 21.39411511 -10.02580123 26.9649302 -18.875 31.37109375 C-21 32 -21 32 -27 32 C-26.01 25.07 -25.02 18.14 -24 11 C-21.710625 10.29875 -19.42125 9.5975 -17.0625 8.875 C-10.65669571 6.82522604 -5.32047221 4.19581955 0 0 Z " fill="#8EBD4F" transform="translate(400,239)"/>
<path d="M0 0 C9.00556369 4.59467535 16.15208885 11.4764199 20 21 C20.49743669 24.73555821 20.53519108 28.26721155 20 32 C19 33 19 33 15.875 33.3125 C11.32159548 32.94528996 8.08023722 32.44711411 5 29 C0.8373563 19.80697116 0.27843944 9.94028789 0 0 Z " fill="#414141" transform="translate(53,180)"/>
<path d="M0 0 C3.61249241 3.14129775 3.90408909 5.64938566 4.23828125 10.35546875 C4.46721056 22.1754503 1.97740077 30.06531114 -6 39 C-6.99 39.495 -6.99 39.495 -8 40 C-8.03867188 38.35064453 -8.03867188 38.35064453 -8.078125 36.66796875 C-8.35811741 28.5893643 -8.85371221 21.67650112 -12.2578125 14.19921875 C-13.14452151 11.57175995 -13.17444488 10.50857305 -12 8 C-10.0390625 6.3671875 -10.0390625 6.3671875 -7.625 4.875 C-6.83351562 4.37742187 -6.04203125 3.87984375 -5.2265625 3.3671875 C-4.49179688 2.91601562 -3.75703125 2.46484375 -3 2 C-2.01 1.34 -1.02 0.68 0 0 Z " fill="#8FBF4F" transform="translate(143,273)"/>
<path d="M0 0 C8.54476747 4.73013913 16.65625443 12.65767571 20 22 C20.59128413 25.0469777 20.48953303 26.84523161 20 30 C18.5 32.0625 18.5 32.0625 16 33 C13.23064887 32.9260097 10.74344058 32.50296411 8 32 C6.66666667 28.66666667 5.33333333 25.33333333 4 22 C3.649375 21.16597656 3.29875 20.33195312 2.9375 19.47265625 C0.55423275 13.18678889 -0.2906984 6.68606314 0 0 Z " fill="#414141" transform="translate(165,176)"/>
<path d="M0 0 C0.49628906 0.27714844 0.99257813 0.55429688 1.50390625 0.83984375 C6.09318168 3.28687676 9.81559721 4.56796643 15 5 C14.01 5.33 13.02 5.66 12 6 C15.03692434 18.5838514 18.06349683 31.1160784 23.36328125 42.9765625 C24 45 24 45 23 48 C10.58088033 35.50326083 2.425754 17.39851146 0 0 Z " fill="#8DBC4E" transform="translate(320,182)"/>
<path d="M0 0 C2 2 2 2 2.265625 4.65234375 C2.20948996 16.45473545 0.87904437 25.65557461 -5 36 C-5.33 36 -5.66 36 -6 36 C-6.10957031 35.27296875 -6.21914062 34.5459375 -6.33203125 33.796875 C-7.35930728 27.28244166 -8.68589721 20.95887364 -10.4140625 14.59375 C-11 12 -11 12 -11 8 C-8.59375 5.859375 -8.59375 5.859375 -5.5 3.75 C-3.96859375 2.69039063 -3.96859375 2.69039063 -2.40625 1.609375 C-1.6121875 1.07828125 -0.818125 0.5471875 0 0 Z " fill="#8EBD4F" transform="translate(262,256)"/>
</svg>
